<?xml version="1.0" standalone="no"?>
<!DOCTYPE svg PUBLIC "-//W3C//DTD SVG 20010904//EN"
 "http://www.w3.org/TR/2001/REC-SVG-20010904/DTD/svg10.dtd">
<svg version="1.0" xmlns="http://www.w3.org/2000/svg"
 width="512.000000pt" height="512.000000pt" viewBox="0 0 512.000000 512.000000"
 preserveAspectRatio="xMidYMid meet">

<g transform="translate(0.000000,512.000000) scale(0.100000,-0.100000)"
fill="#000000" stroke="none">
<path d="M500 4941 c-88 -28 -140 -60 -201 -120 -61 -61 -104 -135 -125 -216
-11 -41 -14 -310 -14 -1430 0 -1509 -3 -1437 58 -1548 36 -67 118 -147 190
-185 116 -62 114 -62 910 -62 l722 0 0 -95 0 -95 -160 0 c-157 0 -161 -1 -185
-25 -35 -34 -35 -96 0 -130 24 -24 28 -25 185 -25 l160 0 0 -94 0 -95 -161 -3
-161 -3 -24 -28 c-26 -31 -32 -90 -11 -118 26 -33 55 -39 206 -39 l150 0 3
-211 3 -211 28 -24 28 -24 459 0 459 0 28 24 28 24 3 211 3 211 150 0 c151 0
180 6 206 39 21 28 15 87 -11 118 l-24 28 -161 3 -161 3 0 95 0 94 160 0 c157
0 161 1 185 25 35 34 35 96 0 130 -24 24 -28 25 -185 25 l-160 0 0 95 0 95
723 0 c796 0 793 0 911 63 73 39 143 107 185 179 64 113 61 33 61 1553 0 1120
-3 1389 -14 1430 -44 165 -176 297 -340 341 -42 11 -391 14 -2051 13 -1889 0
-2003 -1 -2055 -18z m4105 -195 c61 -29 117 -86 144 -146 20 -44 21 -60 21
-1252 l0 -1208 -2210 0 -2210 0 0 1208 0 1207 24 50 c29 61 86 117 146 144 45
20 56 21 2040 21 l1995 0 50 -24z m165 -2869 c0 -130 -47 -214 -151 -272 l-54
-30 -2005 0 -2005 0 -54 30 c-104 58 -151 142 -151 272 l0 73 2210 0 2210 0 0
-73z m-1880 -1012 l0 -515 -330 0 -330 0 0 515 0 515 330 0 330 0 0 -515z"/>
<path d="M810 4195 c-57 -18 -124 -74 -153 -129 l-22 -41 -3 -700 -3 -700 31
-61 c33 -67 89 -114 160 -135 23 -7 346 -9 960 -7 879 3 927 4 960 22 58 30
109 87 130 143 19 52 20 79 20 722 0 765 2 739 -80 821 -83 84 -28 80 -1054
79 -742 0 -909 -3 -946 -14z m1865 -197 l25 -23 -2 -583 -3 -584 -229 311
c-125 171 -236 316 -246 321 -29 16 -86 12 -107 -7 -11 -10 -57 -69 -103 -131
-46 -62 -86 -109 -90 -105 -4 4 -76 103 -160 218 -84 116 -165 222 -181 238
-33 31 -82 36 -115 12 -12 -8 -160 -203 -330 -434 l-309 -420 -3 581 -2 582
22 23 21 23 893 0 893 0 26 -22z m-1007 -776 l142 -192 -153 -208 -153 -207
-297 -3 -296 -2 301 410 c166 225 305 406 309 402 3 -4 70 -94 147 -200z m721
-315 c117 -159 211 -291 208 -293 -2 -2 -195 -3 -429 -2 l-426 3 139 190 c77
105 174 236 215 293 42 57 77 102 78 100 2 -2 99 -133 215 -291z"/>
<path d="M3133 3916 c-61 -27 -72 -98 -24 -147 l29 -29 267 0 c163 0 274 4
286 10 28 16 51 67 44 99 -3 16 -17 39 -31 52 -25 24 -27 24 -282 26 -203 2
-264 0 -289 -11z"/>
<path d="M3134 3540 c-55 -22 -71 -99 -30 -147 l24 -28 657 0 657 0 24 28 c32
37 32 87 0 124 l-24 28 -644 2 c-353 1 -653 -2 -664 -7z"/>
<path d="M3109 3141 c-50 -50 -33 -127 33 -150 43 -15 1243 -15 1286 0 66 23
83 100 33 150 l-29 29 -647 0 -647 0 -29 -29z"/>
<path d="M3109 2671 c-47 -48 -38 -116 21 -146 44 -23 1266 -23 1310 0 59 30
68 98 21 146 l-29 29 -647 0 -647 0 -29 -29z"/>
<path d="M1164 981 c-34 -21 -64 -75 -64 -115 0 -43 25 -91 61 -116 40 -29
114 -32 153 -6 86 56 87 185 3 236 -41 26 -112 26 -153 1z"/>
<path d="M4425 975 c-55 -55 -15 -155 62 -155 47 0 72 16 89 56 12 29 12 39 0
68 -17 41 -42 56 -91 56 -25 0 -43 -8 -60 -25z"/>
<path d="M466 499 c-33 -39 -33 -79 0 -118 33 -40 89 -43 131 -7 39 34 39 98
0 132 -42 36 -98 33 -131 -7z"/>
<path d="M3911 422 c-99 -50 -105 -177 -12 -239 92 -62 211 4 211 116 0 107
-105 172 -199 123z"/>
</g>
</svg>
