<?xml version="1.0" standalone="no"?>
<!DOCTYPE svg PUBLIC "-//W3C//DTD SVG 20010904//EN"
 "http://www.w3.org/TR/2001/REC-SVG-20010904/DTD/svg10.dtd">
<svg version="1.0" xmlns="http://www.w3.org/2000/svg"
 width="512.000000pt" height="512.000000pt" viewBox="0 0 512.000000 512.000000"
 preserveAspectRatio="xMidYMid meet">

<g transform="translate(0.000000,512.000000) scale(0.100000,-0.100000)"
fill="#000000" stroke="none">
<path d="M58 5104 c-15 -8 -32 -23 -38 -34 -13 -24 -13 -76 0 -100 23 -42 43
-45 370 -50 309 -5 316 -5 353 -28 20 -13 49 -38 62 -56 18 -24 141 -421 470
-1516 245 -815 449 -1488 455 -1494 6 -8 -1 -26 -21 -57 -50 -75 -72 -165 -67
-277 3 -87 8 -105 40 -172 64 -132 195 -233 337 -260 35 -6 479 -10 1253 -10
l1200 0 34 34 c37 37 43 70 20 115 -8 15 -26 32 -41 39 -20 9 -315 12 -1219
12 -1322 0 -1253 -3 -1334 66 -127 108 -127 299 -1 407 82 71 1 67 1330 67
908 0 1204 3 1224 12 15 7 32 23 40 37 29 57 585 1888 585 1926 0 47 -28 111
-61 142 -57 52 -64 53 -547 53 l-449 0 -6 153 c-5 165 -26 259 -86 392 -212
466 -753 705 -1235 544 -436 -145 -727 -561 -704 -1006 l4 -83 -367 0 -368 0
-9 33 c-67 239 -260 864 -279 902 -29 59 -101 136 -160 170 -83 49 -133 55
-458 55 -245 -1 -305 -3 -327 -16z m3124 -218 c262 -52 468 -207 584 -441 66
-135 79 -194 79 -365 0 -124 -3 -156 -23 -220 -73 -230 -219 -403 -429 -509
-146 -73 -350 -99 -514 -67 -428 86 -717 499 -648 926 73 451 510 762 951 676z
m-1096 -1163 c129 -314 379 -536 703 -625 63 -18 104 -21 246 -21 187 0 250
11 400 74 224 93 433 301 532 529 l32 75 456 3 c432 2 456 1 451 -15 -3 -10
-122 -400 -266 -868 -144 -467 -263 -858 -266 -867 -5 -17 -73 -18 -1250 -18
-684 0 -1244 2 -1244 4 0 5 -506 1698 -520 1739 l-9 27 360 0 360 0 15 -37z"/>
<path d="M2973 4556 l-28 -24 -5 -174 -5 -173 -173 -5 -174 -5 -24 -28 c-34
-40 -32 -88 5 -129 l29 -33 171 -3 171 -4 0 -165 0 -165 29 -29 c57 -57 149
-28 165 52 3 18 6 94 6 170 l0 139 139 0 c76 0 152 3 170 6 80 16 109 108 52
165 l-29 29 -165 0 -165 0 -4 171 -3 171 -33 29 c-41 37 -89 39 -129 5z"/>
<path d="M2270 804 c-112 -30 -208 -112 -263 -223 -30 -61 -32 -72 -32 -171 0
-98 2 -109 32 -171 39 -79 116 -159 187 -194 296 -145 636 103 585 428 -38
240 -275 394 -509 331z m216 -219 c150 -88 123 -317 -45 -373 -167 -57 -327
122 -252 283 53 114 186 155 297 90z"/>
<path d="M4140 804 c-115 -31 -213 -112 -267 -223 -26 -51 -28 -66 -28 -171 0
-107 2 -119 29 -175 79 -160 262 -257 433 -228 135 24 249 109 307 232 29 61
31 74 31 171 0 97 -2 110 -31 170 -86 182 -283 275 -474 224z m163 -195 c82
-22 147 -110 147 -198 0 -64 -11 -91 -55 -140 -95 -105 -266 -85 -332 39 -33
60 -30 160 6 212 54 79 144 112 234 87z"/>
</g>
</svg>
