<?xml version="1.0" standalone="no"?>
<!DOCTYPE svg PUBLIC "-//W3C//DTD SVG 20010904//EN"
 "http://www.w3.org/TR/2001/REC-SVG-20010904/DTD/svg10.dtd">
<svg version="1.0" xmlns="http://www.w3.org/2000/svg"
 width="512.000000pt" height="512.000000pt" viewBox="0 0 512.000000 512.000000"
 preserveAspectRatio="xMidYMid meet">

<g transform="translate(0.000000,512.000000) scale(0.100000,-0.100000)"
fill="#000000" stroke="none">
<path d="M781 4914 c-162 -43 -297 -185 -331 -347 -7 -36 -10 -645 -8 -2037
l3 -1985 23 -57 c48 -118 152 -222 269 -270 l58 -23 959 -3 c601 -1 979 1
1012 7 167 31 304 164 349 338 12 46 15 137 15 480 l0 422 668 3 c666 3 667 3
708 25 63 34 97 66 129 125 l30 53 0 915 0 915 -30 53 c-32 59 -66 91 -129
125 -41 22 -42 22 -708 25 l-668 3 0 422 c0 343 -3 434 -15 480 -45 173 -181
306 -346 337 -32 6 -419 10 -993 9 -789 0 -950 -3 -995 -15z m2041 -137 c65
-32 116 -85 154 -159 22 -44 28 -70 32 -150 l5 -98 -1227 0 -1226 0 0 73 c0
133 50 239 144 304 94 65 45 62 1101 60 l960 -2 57 -28z m188 -812 l0 -285
-450 0 -450 0 0 58 c0 70 -19 102 -60 102 -64 0 -60 82 -60 -1285 0 -1367 -4
-1285 60 -1285 42 0 60 32 60 107 l0 63 450 0 450 0 0 -165 0 -165 -1225 0
-1225 0 0 1570 0 1570 1225 0 1225 0 0 -285z m1455 -428 c59 -33 85 -90 85
-189 l0 -78 -1220 0 -1220 0 0 145 0 145 1158 0 1157 0 40 -23z m85 -482 l0
-95 -1220 0 -1220 0 0 95 0 95 1220 0 1220 0 0 -95z m0 -788 l0 -573 -23 -44
c-14 -30 -36 -53 -62 -67 l-40 -23 -1157 0 -1158 0 0 640 0 640 1220 0 1220 0
0 -573z m-1542 -1489 c-3 -206 -4 -215 -29 -269 -36 -76 -90 -133 -157 -166
l-57 -28 -975 0 -975 0 -56 26 c-72 34 -134 96 -168 168 -25 54 -26 63 -29
269 l-3 212 1226 0 1226 0 -3 -212z"/>
<path d="M1707 4632 c-22 -24 -21 -65 1 -85 27 -25 143 -24 165 1 22 24 21 65
-1 85 -27 25 -143 24 -165 -1z"/>
<path d="M707 4062 c-38 -42 -8 -132 43 -132 53 0 83 96 42 133 -24 22 -65 21
-85 -1z"/>
<path d="M710 3840 c-19 -19 -20 -33 -20 -475 0 -442 1 -456 20 -475 11 -11
29 -20 40 -20 11 0 29 9 40 20 19 19 20 33 20 475 0 442 -1 456 -20 475 -11
11 -29 20 -40 20 -11 0 -29 -9 -40 -20z"/>
<path d="M3396 2294 c-65 -21 -146 -101 -169 -168 -38 -112 -13 -221 68 -303
83 -82 99 -85 497 -81 l333 3 54 30 c29 16 66 45 82 65 38 45 69 129 69 185 0
56 -31 140 -69 185 -16 20 -53 49 -82 65 l-54 30 -340 2 c-281 2 -348 -1 -389
-13z m743 -133 c37 -27 70 -90 71 -136 0 -50 -40 -117 -85 -143 -40 -22 -44
-22 -367 -20 -312 3 -328 4 -354 24 -83 61 -99 171 -37 245 49 58 57 59 413
56 l325 -2 34 -24z"/>
<path d="M2227 2182 c-22 -24 -21 -65 1 -85 16 -15 53 -17 310 -17 279 0 293
1 312 20 11 11 20 29 20 40 0 11 -9 29 -20 40 -19 19 -33 20 -313 20 -272 0
-295 -1 -310 -18z"/>
<path d="M2930 2180 c-46 -46 -9 -100 68 -100 55 0 82 20 82 62 0 38 -29 58
-83 58 -34 0 -53 -6 -67 -20z"/>
<path d="M2227 1952 c-22 -24 -21 -65 1 -85 27 -25 133 -23 155 1 22 24 21 65
-1 85 -27 25 -133 23 -155 -1z"/>
<path d="M2470 1950 c-11 -11 -20 -29 -20 -40 0 -11 9 -29 20 -40 17 -17 33
-20 120 -20 87 0 103 3 120 20 11 11 20 29 20 40 0 11 -9 29 -20 40 -17 17
-33 20 -120 20 -87 0 -103 -3 -120 -20z"/>
<path d="M2804 1962 c-24 -16 -35 -51 -23 -74 7 -13 17 -26 23 -30 6 -4 63 -8
127 -8 127 0 149 9 149 62 0 48 -25 58 -151 58 -63 0 -119 -4 -125 -8z"/>
<path d="M1695 883 c-166 -87 -167 -310 -1 -395 78 -40 194 -20 253 44 31 33
63 107 63 147 0 84 -52 169 -124 202 -51 23 -149 24 -191 2z m158 -123 c49
-39 44 -122 -9 -156 -65 -43 -154 4 -154 82 0 78 100 123 163 74z"/>
</g>
</svg>
