<?xml version="1.0" standalone="no"?>
<!DOCTYPE svg PUBLIC "-//W3C//DTD SVG 20010904//EN"
 "http://www.w3.org/TR/2001/REC-SVG-20010904/DTD/svg10.dtd">
<svg version="1.0" xmlns="http://www.w3.org/2000/svg"
 width="512.000000pt" height="512.000000pt" viewBox="0 0 512.000000 512.000000"
 preserveAspectRatio="xMidYMid meet">

<g transform="translate(0.000000,512.000000) scale(0.100000,-0.100000)"
fill="#000000" stroke="none">
<path d="M3322 4587 c-49 -18 -99 -63 -124 -110 -18 -34 -23 -65 -28 -167 l-5
-125 -138 -282 c-75 -155 -137 -288 -137 -295 0 -22 30 -59 56 -68 55 -21 68
-5 188 241 l114 230 57 -118 c32 -65 90 -187 131 -270 l73 -153 -188 0 c-175
0 -189 -1 -209 -20 -29 -27 -30 -84 -2 -108 18 -15 50 -18 233 -22 l212 -5 3
-1317 2 -1318 -359 0 c-347 0 -359 -1 -385 -21 -34 -27 -36 -77 -3 -107 l23
-22 945 0 c894 0 946 1 984 19 51 23 93 65 116 116 18 38 19 102 19 1394 l0
1353 -190 391 -190 390 0 97 c0 160 -35 236 -132 284 l-52 26 -490 -1 c-351 0
-500 -4 -524 -12z m1010 -151 c25 -19 38 -60 38 -122 l0 -54 -526 0 -526 0 4
76 c6 123 -36 114 522 114 371 -1 475 -3 488 -14z m213 -637 c83 -171 152
-315 153 -320 2 -5 -200 -9 -508 -9 l-511 0 -155 316 c-84 174 -154 318 -154
320 0 2 231 4 513 4 l512 0 150 -311z m205 -554 l0 -75 -169 0 c-164 0 -171
-1 -197 -23 -34 -30 -36 -83 -3 -109 18 -16 44 -18 195 -18 l174 0 0 -300 0
-300 -43 0 c-23 0 -67 -8 -96 -19 -77 -27 -113 -15 -208 70 -42 37 -92 76
-112 86 -49 24 -133 22 -193 -4 -104 -47 -192 -175 -193 -283 0 -73 24 -132
96 -231 68 -94 73 -122 30 -163 -22 -21 -54 -33 -157 -57 -71 -16 -137 -32
-146 -35 -17 -5 -18 36 -18 765 l0 771 520 0 520 0 0 -75z m-459 -881 c131
-117 241 -149 362 -108 26 9 59 13 72 10 l25 -6 0 -766 0 -765 -25 -24 -24
-25 -496 0 -495 0 0 75 0 75 170 0 c168 0 171 0 195 25 31 30 32 71 3 102 -21
22 -27 23 -195 23 l-173 0 0 75 0 75 170 0 c168 0 171 0 195 25 31 30 32 71 3
102 -21 22 -27 23 -195 23 l-173 0 0 154 c0 132 2 157 18 174 21 25 79 45 228
77 63 14 127 31 143 39 42 22 98 90 110 133 24 85 11 126 -73 237 -36 47 -68
98 -72 114 -3 15 -8 33 -10 41 -6 19 15 81 38 111 23 29 86 70 109 70 9 0 49
-30 90 -66z"/>
<path d="M3765 3966 c-131 -41 -180 -112 -120 -171 30 -31 39 -31 109 1 41 19
72 25 119 25 58 0 89 -7 173 -42 28 -11 36 -10 58 5 55 36 53 95 -4 136 -75
54 -240 76 -335 46z"/>
<path d="M1423 4525 c-93 -47 -194 -176 -254 -325 -13 -30 -24 -57 -25 -59 -2
-1 -20 10 -41 27 -134 104 -298 52 -383 -122 -74 -151 -117 -495 -90 -726 l8
-74 -39 -44 c-21 -24 -47 -67 -58 -96 -19 -50 -321 -2148 -321 -2227 0 -103
72 -233 164 -296 174 -119 429 -60 528 124 39 71 128 300 128 327 0 31 -28 63
-60 71 -45 11 -73 -23 -125 -152 -68 -167 -90 -208 -127 -236 -107 -80 -260
-51 -325 61 -23 39 -28 59 -28 112 1 36 4 82 8 103 l8 38 36 -32 c47 -41 149
-89 189 -89 35 0 69 24 78 55 11 38 -17 68 -99 110 -86 44 -135 95 -156 164
-12 42 -4 191 11 191 5 0 22 -11 38 -25 44 -37 130 -77 178 -83 52 -6 84 21
84 71 0 40 -17 57 -82 81 -61 22 -131 85 -159 142 -19 40 -21 56 -16 128 3 44
9 95 13 113 l6 32 42 -34 c56 -45 143 -85 188 -85 28 0 42 6 57 26 39 50 20
94 -56 125 -114 46 -179 120 -189 215 -2 27 1 84 8 127 l13 79 40 -32 c53 -43
153 -90 191 -90 37 0 74 36 74 71 0 39 -26 66 -82 85 -73 24 -151 102 -172
172 -14 50 -14 63 15 269 20 143 37 229 49 253 47 93 157 140 324 140 55 0
128 -7 161 -15 83 -20 102 -19 130 10 31 30 32 69 2 99 -49 49 -319 73 -456
41 -35 -9 -67 -13 -70 -9 -14 14 -4 360 13 448 21 109 60 208 99 253 34 39 83
44 132 15 60 -37 62 -56 27 -205 -17 -72 -36 -165 -43 -206 -10 -68 -9 -76 9
-100 13 -18 30 -27 55 -29 58 -5 69 15 100 176 37 194 88 356 151 487 99 202
199 277 267 199 60 -69 55 -303 -11 -580 -21 -88 -14 -124 26 -143 35 -15 47
-14 77 9 18 14 30 38 38 77 14 62 34 89 74 99 62 15 102 -15 115 -86 11 -62
36 -90 81 -90 64 0 88 74 54 171 -34 96 -121 159 -220 159 l-51 0 9 93 c20
197 -27 363 -121 431 -37 26 -54 31 -115 34 -62 3 -79 0 -124 -23z"/>
<path d="M2397 3541 c-19 -21 -61 -76 -92 -120 l-57 -82 -68 65 c-159 150
-332 185 -585 121 -118 -30 -180 -58 -201 -90 -16 -25 -16 -31 5 -132 35 -167
83 -279 154 -360 18 -20 27 -38 21 -40 -40 -13 -181 -120 -249 -188 -235 -235
-365 -557 -365 -904 0 -276 70 -513 213 -729 145 -218 359 -370 591 -419 94
-20 268 -13 351 14 60 19 61 19 125 0 53 -17 94 -20 220 -21 150 0 158 1 252
33 420 144 709 596 710 1111 0 421 -239 895 -529 1047 -29 16 -53 31 -53 34 0
4 16 32 35 64 40 67 77 175 100 293 17 88 15 110 -14 136 -30 27 -239 66 -354
66 l-98 0 15 22 c37 53 5 118 -58 118 -26 0 -41 -8 -69 -39z m-440 -169 c64
-25 123 -70 174 -134 l38 -49 -16 -42 c-9 -23 -17 -43 -18 -45 -1 -1 -33 19
-71 44 -80 54 -239 134 -266 134 -29 0 -68 -45 -68 -78 0 -37 26 -61 120 -107
80 -40 207 -123 228 -148 10 -12 1 -11 -40 6 -44 18 -74 22 -179 22 -110 0
-130 2 -148 19 -34 30 -79 108 -101 172 -17 47 -50 174 -50 188 0 3 82 29 125
40 48 12 221 -2 272 -22z m766 -93 c42 -7 71 -17 74 -26 8 -20 -31 -162 -62
-227 -39 -84 -61 -98 -151 -102 -90 -4 -182 -26 -278 -65 l-69 -28 6 62 c7 71
40 175 84 262 23 44 41 66 69 81 51 28 105 45 168 53 56 7 62 7 159 -10z
m-722 -465 c63 -18 109 -44 160 -90 55 -48 69 -49 149 -14 103 45 155 59 240
66 145 12 277 -42 401 -166 234 -233 365 -667 304 -1006 -68 -377 -285 -663
-585 -771 -67 -23 -90 -26 -210 -27 -115 -1 -146 2 -208 22 l-74 23 -66 -23
c-57 -20 -86 -23 -197 -22 -124 0 -134 2 -220 35 -114 44 -191 94 -281 184
-301 300 -391 814 -215 1236 91 219 282 431 462 514 120 55 240 68 340 39z"/>
<path d="M1560 2390 c-27 -27 -27 -83 2 -110 40 -37 98 -22 117 31 26 74 -64
134 -119 79z"/>
<path d="M1355 2205 c-14 -13 -25 -36 -25 -50 0 -14 11 -37 25 -50 13 -14 36
-25 50 -25 14 0 37 11 50 25 34 33 33 77 -1 104 -35 28 -69 26 -99 -4z"/>
<path d="M1640 2123 c-53 -67 31 -156 98 -106 36 27 42 83 13 112 -31 31 -84
28 -111 -6z"/>
</g>
</svg>
