<?xml version="1.0" standalone="no"?>
<!DOCTYPE svg PUBLIC "-//W3C//DTD SVG 20010904//EN"
 "http://www.w3.org/TR/2001/REC-SVG-20010904/DTD/svg10.dtd">
<svg version="1.0" xmlns="http://www.w3.org/2000/svg"
 width="512.000000pt" height="512.000000pt" viewBox="0 0 512.000000 512.000000"
 preserveAspectRatio="xMidYMid meet">

<g transform="translate(0.000000,512.000000) scale(0.100000,-0.100000)"
fill="#000000" stroke="none">
<path d="M1605 5105 c-253 -56 -448 -232 -533 -480 l-27 -80 -3 -876 -3 -875
-58 -12 c-92 -19 -192 -74 -250 -138 -122 -133 -122 -355 0 -488 58 -64 158
-119 250 -138 32 -7 59 -15 59 -20 0 -4 -19 -12 -42 -19 -157 -41 -261 -170
-275 -341 -17 -205 85 -361 273 -417 l55 -16 27 -80 c88 -261 313 -444 587
-478 49 -6 93 -16 97 -22 4 -5 8 -24 8 -41 0 -50 30 -213 57 -304 29 -102 97
-245 126 -265 32 -22 74 -18 102 10 34 33 31 62 -14 147 -58 107 -91 232 -116
436 l-4 32 182 0 182 -1 46 -67 c70 -102 399 -535 421 -554 29 -26 74 -23 103
7 48 47 41 61 -172 341 -233 307 -311 420 -392 574 -89 170 -125 283 -125 395
-1 74 3 97 21 131 39 72 148 134 238 134 131 0 321 -139 461 -336 27 -38 117
-162 201 -276 83 -113 156 -215 161 -225 6 -10 16 -46 22 -81 17 -83 40 -112
90 -112 30 0 43 6 60 28 22 27 23 59 5 127 -4 16 6 28 46 54 108 73 208 212
256 356 l27 80 6 414 5 414 74 -119 c145 -231 249 -453 291 -620 10 -39 58
-336 105 -660 52 -349 93 -598 101 -611 28 -44 101 -42 131 3 16 25 15 39 -26
312 -138 938 -140 952 -183 1080 -70 210 -178 416 -399 759 l-98 152 -3 1103
-3 1103 -27 80 c-39 114 -92 199 -178 285 -86 86 -171 139 -285 178 l-80 27
-760 2 c-604 1 -772 -1 -820 -12z m1551 -156 c206 -37 396 -227 433 -433 16
-85 15 -3205 0 -3278 -22 -103 -72 -194 -154 -275 l-75 -75 -18 23 c-10 13
-88 119 -172 234 -205 280 -225 307 -255 335 -14 13 -25 27 -25 32 0 4 113 8
250 8 l251 0 24 25 25 24 0 1391 0 1391 -25 24 -24 25 -991 0 -991 0 -24 -25
-25 -24 0 -1391 0 -1391 25 -24 24 -25 311 0 311 0 -7 -22 c-52 -163 -12 -374
117 -616 21 -41 39 -75 39 -78 0 -9 -480 -3 -536 7 -206 37 -396 227 -433 433
-15 83 -15 3189 0 3272 36 202 226 395 424 432 72 14 1446 15 1521 1z m124
-1989 l0 -1280 -292 0 -292 0 -84 36 c-142 61 -280 57 -399 -12 l-42 -24 -325
0 -326 0 0 1280 0 1280 880 0 880 0 0 -1280z m-2240 -560 c0 -141 -4 -230 -10
-230 -27 0 -126 46 -157 73 -93 82 -96 225 -6 310 28 26 133 76 161 77 9 0 12
-53 12 -230z m0 -800 c0 -248 2 -243 -71 -187 -62 47 -84 96 -84 187 0 91 22
140 84 188 73 55 71 60 71 -188z"/>
<path d="M2185 4695 c-16 -15 -25 -36 -25 -55 0 -19 9 -40 25 -55 24 -25 26
-25 215 -25 189 0 191 0 215 25 16 15 25 36 25 55 0 19 -9 40 -25 55 -24 25
-26 25 -215 25 -189 0 -191 0 -215 -25z"/>
<path d="M2825 4695 c-16 -15 -25 -36 -25 -55 0 -19 9 -40 25 -55 21 -22 33
-25 95 -25 62 0 74 3 95 25 16 15 25 36 25 55 0 19 -9 40 -25 55 -21 22 -33
25 -95 25 -62 0 -74 -3 -95 -25z"/>
<path d="M2111 3583 c-12 -11 -35 -59 -54 -118 l-34 -100 -152 -5 c-146 -5
-154 -6 -172 -29 -18 -22 -19 -46 -19 -493 l0 -469 25 -24 24 -25 671 0 671 0
24 25 25 24 0 469 c0 447 -1 471 -19 493 -18 23 -26 24 -172 29 l-152 5 -34
100 c-19 59 -42 107 -54 118 -19 15 -49 17 -289 17 -240 0 -270 -2 -289 -17z
m506 -248 c19 -59 42 -107 54 -117 18 -15 42 -18 155 -18 l134 0 0 -360 0
-360 -560 0 -560 0 0 360 0 360 133 0 c102 0 138 3 154 15 14 10 33 50 54 112
17 54 34 101 36 106 2 4 86 6 185 5 l181 -3 34 -100z"/>
<path d="M2325 3191 c-92 -24 -173 -90 -215 -176 -34 -69 -35 -198 -2 -265 34
-71 75 -114 144 -151 58 -31 70 -34 148 -33 72 0 93 4 136 26 75 40 107 70
145 140 31 58 34 70 34 148 0 78 -3 90 -34 148 -57 104 -144 160 -260 167 -36
2 -79 1 -96 -4z m138 -165 c103 -43 128 -177 48 -257 -112 -113 -296 -12 -267
146 18 94 128 150 219 111z"/>
</g>
</svg>
