<?xml version="1.0" standalone="no"?>
<!DOCTYPE svg PUBLIC "-//W3C//DTD SVG 20010904//EN"
 "http://www.w3.org/TR/2001/REC-SVG-20010904/DTD/svg10.dtd">
<svg version="1.0" xmlns="http://www.w3.org/2000/svg"
 width="512.000000pt" height="512.000000pt" viewBox="0 0 512.000000 512.000000"
 preserveAspectRatio="xMidYMid meet">

<g transform="translate(0.000000,512.000000) scale(0.100000,-0.100000)"
fill="#000000" stroke="none">
<path d="M1908 5103 c-67 -8 -99 -75 -59 -124 18 -22 23 -23 222 -25 220 -2
350 -19 529 -69 592 -166 1092 -638 1293 -1221 266 -767 20 -1618 -613 -2131
-215 -173 -479 -302 -770 -373 -93 -23 -120 -43 -120 -91 0 -16 9 -38 21 -50
19 -19 29 -21 78 -16 66 6 223 51 342 97 210 81 422 209 602 364 l58 50 72
-72 72 -72 -97 -97 c-53 -54 -103 -112 -112 -130 -20 -40 -21 -115 -1 -157 8
-17 214 -230 458 -472 440 -439 492 -485 553 -484 24 1 47 18 63 48 19 36 -3
78 -53 104 -56 28 -886 855 -886 882 0 25 445 474 479 483 20 5 75 -46 428
-398 230 -229 421 -429 443 -461 121 -184 45 -424 -165 -519 -93 -42 -115 -81
-74 -133 29 -37 75 -34 165 9 208 100 326 349 269 570 -35 137 -36 138 -508
612 -243 244 -456 450 -473 458 -42 20 -117 19 -157 -1 -18 -9 -76 -59 -129
-112 l-98 -97 -70 70 c-38 38 -70 72 -70 75 0 3 27 37 60 75 142 165 297 434
369 639 79 224 121 471 121 706 0 1017 -746 1884 -1759 2046 -95 15 -411 26
-483 17z"/>
<path d="M1490 5025 c-487 -149 -891 -453 -1163 -876 -314 -489 -406 -1097
-251 -1669 64 -236 201 -513 347 -700 406 -521 1003 -820 1636 -820 152 0 175
10 175 75 0 63 -25 75 -156 75 -497 0 -965 189 -1328 537 -453 434 -660 1023
-579 1648 35 271 149 574 304 805 256 383 645 664 1093 790 54 15 88 30 98 44
36 51 -2 117 -67 115 -19 -1 -68 -11 -109 -24z"/>
<path d="M1905 4704 c-312 -34 -645 -175 -896 -380 -602 -491 -777 -1369 -413
-2073 337 -654 1091 -1007 1824 -855 433 90 826 361 1065 734 109 169 195 386
237 592 19 96 23 144 23 318 -1 174 -4 222 -23 315 -108 523 -429 938 -912
1180 -120 61 -263 110 -410 141 -90 20 -151 26 -285 29 -93 1 -188 1 -210 -1z
m330 -154 c195 -22 419 -95 588 -191 393 -225 652 -582 748 -1029 30 -137 33
-427 6 -561 -67 -337 -201 -586 -446 -829 l-116 -115 -3 280 c-3 277 -2 280
19 295 107 75 196 192 232 305 22 69 22 80 22 616 0 524 -1 548 -19 568 -22
25 -73 28 -102 7 -18 -14 -19 -33 -24 -428 l-5 -413 -162 -3 -163 -2 0 410 c0
397 -1 411 -20 430 -30 30 -83 27 -109 -6 -20 -26 -21 -37 -21 -430 l0 -404
-160 0 -159 0 -3 409 c-3 386 -4 410 -22 430 -25 28 -79 28 -106 1 -20 -20
-21 -29 -18 -588 l3 -567 29 -68 c38 -91 103 -177 176 -234 l60 -46 0 -413 0
-413 -37 -10 c-105 -27 -182 -35 -348 -35 -166 0 -243 8 -347 35 l-38 10 0
440 0 441 54 53 c194 192 263 476 192 800 -58 268 -203 497 -367 581 -70 36
-182 44 -256 20 -120 -40 -237 -160 -323 -331 -91 -184 -125 -339 -117 -545 8
-224 70 -382 199 -511 l68 -69 -2 -305 -3 -306 -98 91 c-395 372 -561 911
-446 1450 160 742 887 1264 1644 1180z m-701 -833 c200 -133 329 -557 256
-841 -42 -163 -158 -314 -271 -351 -129 -43 -251 -7 -350 103 -190 212 -199
602 -19 916 115 201 250 262 384 173z m1602 -864 c-13 -96 -29 -144 -65 -201
-44 -68 -96 -112 -178 -150 -51 -23 -70 -27 -158 -27 -88 0 -107 3 -158 27
-130 61 -225 194 -235 328 l-5 70 403 0 402 0 -6 -47z m-1721 -498 c22 0 59 3
83 8 l42 7 0 -380 c0 -209 -3 -380 -7 -380 -5 0 -60 26 -123 58 l-115 57 -3
323 -2 322 42 -7 c24 -5 61 -8 83 -8z m1445 -330 l0 -301 -67 -33 c-38 -19
-92 -44 -120 -57 l-53 -24 0 358 0 357 120 0 120 0 0 -300z"/>
</g>
</svg>
